<svg xmlns="http://www.w3.org/2000/svg" xmlns:xlink="http://www.w3.org/1999/xlink" width="40" zoomAndPan="magnify" viewBox="0 0 30 30.000001" height="40" preserveAspectRatio="xMidYMid meet" version="1.0"><defs><clipPath id="9be8603c0f"><path d="M 0.484375 0 L 29.515625 0 L 29.515625 29.03125 L 0.484375 29.03125 Z M 0.484375 0 " clip-rule="nonzero"/></clipPath><clipPath id="5f82cd332b"><path d="M 2.917969 2.105469 L 26.867188 2.105469 L 26.867188 27 L 2.917969 27 Z M 2.917969 2.105469 " clip-rule="nonzero"/></clipPath><clipPath id="7fec203003"><path d="M 4 2.105469 L 6 2.105469 L 6 7 L 4 7 Z M 4 2.105469 " clip-rule="nonzero"/></clipPath><clipPath id="36a904f614"><path d="M 6 2.105469 L 14 2.105469 L 14 4 L 6 4 Z M 6 2.105469 " clip-rule="nonzero"/></clipPath><clipPath id="e153bd0775"><path d="M 14 2.105469 L 19 2.105469 L 19 7 L 14 7 Z M 14 2.105469 " clip-rule="nonzero"/></clipPath><clipPath id="714f8837a1"><path d="M 16 2.105469 L 21 2.105469 L 21 9 L 16 9 Z M 16 2.105469 " clip-rule="nonzero"/></clipPath><clipPath id="f5cdaa0693"><path d="M 22 2.105469 L 24 2.105469 L 24 7 L 22 7 Z M 22 2.105469 " clip-rule="nonzero"/></clipPath><clipPath id="fa112df445"><path d="M 24 2.105469 L 26.867188 2.105469 L 26.867188 7 L 24 7 Z M 24 2.105469 " clip-rule="nonzero"/></clipPath><clipPath id="bb2a4a8e8d"><path d="M 24 7 L 26.867188 7 L 26.867188 12 L 24 12 Z M 24 7 " clip-rule="nonzero"/></clipPath><clipPath id="340c8b04f0"><path d="M 19 12 L 26.867188 12 L 26.867188 20 L 19 20 Z M 19 12 " clip-rule="nonzero"/></clipPath><clipPath id="bc3f4f7cf8"><path d="M 19 12 L 26.867188 12 L 26.867188 25 L 19 25 Z M 19 12 " clip-rule="nonzero"/></clipPath><clipPath id="a03ea27f3a"><path d="M 22 22 L 26.867188 22 L 26.867188 28.234375 L 22 28.234375 Z M 22 22 " clip-rule="nonzero"/></clipPath><clipPath id="c519aaaa74"><path d="M 2.917969 25 L 26.867188 25 L 26.867188 28.234375 L 2.917969 28.234375 Z M 2.917969 25 " clip-rule="nonzero"/></clipPath><clipPath id="198ef6b742"><path d="M 4 25 L 11 25 L 11 28.234375 L 4 28.234375 Z M 4 25 " clip-rule="nonzero"/></clipPath><clipPath id="646209eb21"><path d="M 9 28 L 14 28 L 14 28.234375 L 9 28.234375 Z M 9 28 " clip-rule="nonzero"/></clipPath><clipPath id="60fae77960"><path d="M 11 28 L 19 28 L 19 28.234375 L 11 28.234375 Z M 11 28 " clip-rule="nonzero"/></clipPath><clipPath id="53c8ce24c3"><path d="M 19 28 L 24 28 L 24 28.234375 L 19 28.234375 Z M 19 28 " clip-rule="nonzero"/></clipPath></defs><g clip-path="url(#9be8603c0f)"><path fill="#ffffff" d="M 0.484375 0 L 29.515625 0 L 29.515625 29.03125 L 0.484375 29.03125 Z M 0.484375 0 " fill-opacity="1" fill-rule="nonzero"/><path fill="#ffffff" d="M 0.484375 0 L 29.515625 0 L 29.515625 29.03125 L 0.484375 29.03125 Z M 0.484375 0 " fill-opacity="1" fill-rule="nonzero"/></g><g clip-path="url(#5f82cd332b)"><path fill="#000000" d="M 1.484375 12.003906 L 1.484375 24.277344 L 2.777344 24.277344 L 2.777344 19.109375 L 5.363281 19.109375 L 5.363281 17.816406 L 2.777344 17.816406 L 2.777344 11.355469 L 5.363281 11.355469 L 5.363281 10.0625 L 2.777344 10.0625 L 2.777344 1.019531 L 27.332031 1.019531 L 27.332031 3.601562 L 28.621094 3.601562 L 28.621094 1.019531 L 35.085938 1.019531 L 35.085938 2.308594 L 32.5 2.308594 L 32.5 3.601562 L 36.375 3.601562 L 36.375 1.019531 L 48.007812 1.019531 L 48.007812 3.601562 L 51.882812 3.601562 L 51.882812 2.308594 L 49.300781 2.308594 L 49.300781 1.019531 L 53.175781 1.019531 L 53.175781 15.234375 L 50.589844 15.234375 L 50.589844 16.527344 L 53.175781 16.527344 L 53.175781 25.570312 L 51.882812 25.570312 L 51.882812 22.988281 L 50.589844 22.988281 L 50.589844 26.863281 L 54.46875 26.863281 L 54.46875 -0.273438 L 1.484375 -0.273438 Z M 1.484375 12.003906 " fill-opacity="1" fill-rule="nonzero"/></g><g clip-path="url(#7fec203003)"><path fill="#000000" d="M 4.070312 4.25 L 4.070312 6.1875 L 5.363281 6.1875 L 5.363281 2.308594 L 4.070312 2.308594 Z M 4.070312 4.25 " fill-opacity="1" fill-rule="nonzero"/></g><g clip-path="url(#36a904f614)"><path fill="#000000" d="M 6.652344 2.957031 L 6.652344 3.601562 L 13.113281 3.601562 L 13.113281 2.308594 L 6.652344 2.308594 Z M 6.652344 2.957031 " fill-opacity="1" fill-rule="nonzero"/></g><g clip-path="url(#e153bd0775)"><path fill="#000000" d="M 14.40625 4.25 L 14.40625 6.1875 L 15.699219 6.1875 L 15.699219 3.601562 L 18.285156 3.601562 L 18.285156 2.308594 L 14.40625 2.308594 Z M 14.40625 4.25 " fill-opacity="1" fill-rule="nonzero"/></g><g clip-path="url(#714f8837a1)"><path fill="#000000" d="M 19.578125 3.601562 L 19.578125 4.894531 L 16.992188 4.894531 L 16.992188 8.773438 L 18.285156 8.773438 L 18.285156 6.1875 L 20.867188 6.1875 L 20.867188 2.308594 L 19.578125 2.308594 Z M 19.578125 3.601562 " fill-opacity="1" fill-rule="nonzero"/></g><g clip-path="url(#f5cdaa0693)"><path fill="#000000" d="M 22.160156 4.25 L 22.160156 6.1875 L 23.453125 6.1875 L 23.453125 2.308594 L 22.160156 2.308594 Z M 22.160156 4.25 " fill-opacity="1" fill-rule="nonzero"/></g><g clip-path="url(#fa112df445)"><path fill="#000000" d="M 24.746094 4.25 L 24.746094 6.1875 L 26.039062 6.1875 L 26.039062 2.308594 L 24.746094 2.308594 Z M 24.746094 4.25 " fill-opacity="1" fill-rule="nonzero"/></g><path fill="#000000" d="M 6.652344 5.542969 L 6.652344 6.1875 L 9.238281 6.1875 L 9.238281 8.773438 L 10.53125 8.773438 L 10.53125 6.1875 L 13.113281 6.1875 L 13.113281 4.894531 L 6.652344 4.894531 Z M 6.652344 5.542969 " fill-opacity="1" fill-rule="nonzero"/><path fill="#000000" d="M 4.070312 8.125 L 4.070312 8.773438 L 6.652344 8.773438 L 6.652344 11.355469 L 7.945312 11.355469 L 7.945312 7.480469 L 4.070312 7.480469 Z M 4.070312 8.125 " fill-opacity="1" fill-rule="nonzero"/><path fill="#000000" d="M 11.824219 8.125 L 11.824219 8.773438 L 14.40625 8.773438 L 14.40625 10.0625 L 11.824219 10.0625 L 11.824219 11.355469 L 18.285156 11.355469 L 18.285156 10.0625 L 15.699219 10.0625 L 15.699219 7.480469 L 11.824219 7.480469 Z M 11.824219 8.125 " fill-opacity="1" fill-rule="nonzero"/><path fill="#000000" d="M 19.578125 8.125 L 19.578125 8.773438 L 23.453125 8.773438 L 23.453125 7.480469 L 19.578125 7.480469 Z M 19.578125 8.125 " fill-opacity="1" fill-rule="nonzero"/><g clip-path="url(#bb2a4a8e8d)"><path fill="#000000" d="M 24.746094 9.417969 L 24.746094 11.355469 L 26.039062 11.355469 L 26.039062 7.480469 L 24.746094 7.480469 Z M 24.746094 9.417969 " fill-opacity="1" fill-rule="nonzero"/></g><path fill="#000000" d="M 9.238281 12.003906 L 9.238281 13.941406 L 10.53125 13.941406 L 10.53125 10.0625 L 9.238281 10.0625 Z M 9.238281 12.003906 " fill-opacity="1" fill-rule="nonzero"/><path fill="#000000" d="M 19.578125 10.710938 L 19.578125 11.355469 L 23.453125 11.355469 L 23.453125 10.0625 L 19.578125 10.0625 Z M 19.578125 10.710938 " fill-opacity="1" fill-rule="nonzero"/><path fill="#000000" d="M 4.070312 13.292969 L 4.070312 13.941406 L 7.945312 13.941406 L 7.945312 12.648438 L 4.070312 12.648438 Z M 4.070312 13.292969 " fill-opacity="1" fill-rule="nonzero"/><path fill="#000000" d="M 11.824219 13.292969 L 11.824219 13.941406 L 15.699219 13.941406 L 15.699219 12.648438 L 11.824219 12.648438 Z M 11.824219 13.292969 " fill-opacity="1" fill-rule="nonzero"/><path fill="#000000" d="M 16.992188 14.585938 L 16.992188 16.527344 L 20.867188 16.527344 L 20.867188 15.234375 L 18.285156 15.234375 L 18.285156 12.648438 L 16.992188 12.648438 Z M 16.992188 14.585938 " fill-opacity="1" fill-rule="nonzero"/><path fill="#000000" d="M 19.578125 13.292969 L 19.578125 13.941406 L 23.453125 13.941406 L 23.453125 12.648438 L 19.578125 12.648438 Z M 19.578125 13.292969 " fill-opacity="1" fill-rule="nonzero"/><g clip-path="url(#340c8b04f0)"><path fill="#000000" d="M 24.746094 13.941406 L 24.746094 15.234375 L 22.160156 15.234375 L 22.160156 17.816406 L 19.578125 17.816406 L 19.578125 19.109375 L 23.453125 19.109375 L 23.453125 16.527344 L 26.039062 16.527344 L 26.039062 12.648438 L 24.746094 12.648438 Z M 24.746094 13.941406 " fill-opacity="1" fill-rule="nonzero"/></g><g clip-path="url(#bc3f4f7cf8)"><path fill="#000000" d="M 29.914062 13.941406 L 29.914062 15.234375 L 27.332031 15.234375 L 27.332031 17.816406 L 24.746094 17.816406 L 24.746094 20.402344 L 19.578125 20.402344 L 19.578125 21.695312 L 22.160156 21.695312 L 22.160156 24.277344 L 23.453125 24.277344 L 23.453125 21.695312 L 26.039062 21.695312 L 26.039062 19.109375 L 28.621094 19.109375 L 28.621094 16.527344 L 29.914062 16.527344 L 29.914062 19.109375 L 31.207031 19.109375 L 31.207031 12.648438 L 29.914062 12.648438 Z M 29.914062 13.941406 " fill-opacity="1" fill-rule="nonzero"/></g><path fill="#000000" d="M 4.070312 15.878906 L 4.070312 16.527344 L 10.53125 16.527344 L 10.53125 15.234375 L 4.070312 15.234375 Z M 4.070312 15.878906 " fill-opacity="1" fill-rule="nonzero"/><path fill="#000000" d="M 11.824219 17.171875 L 11.824219 19.109375 L 13.113281 19.109375 L 13.113281 15.234375 L 11.824219 15.234375 Z M 11.824219 17.171875 " fill-opacity="1" fill-rule="nonzero"/><path fill="#000000" d="M 14.40625 17.171875 L 14.40625 19.109375 L 18.285156 19.109375 L 18.285156 17.816406 L 15.699219 17.816406 L 15.699219 15.234375 L 14.40625 15.234375 Z M 14.40625 17.171875 " fill-opacity="1" fill-rule="nonzero"/><path fill="#000000" d="M 6.652344 19.757812 L 6.652344 21.695312 L 7.945312 21.695312 L 7.945312 17.816406 L 6.652344 17.816406 Z M 6.652344 19.757812 " fill-opacity="1" fill-rule="nonzero"/><path fill="#000000" d="M 9.238281 21.046875 L 9.238281 24.277344 L 10.53125 24.277344 L 10.53125 17.816406 L 9.238281 17.816406 Z M 9.238281 21.046875 " fill-opacity="1" fill-rule="nonzero"/><path fill="#000000" d="M 4.070312 22.339844 L 4.070312 24.277344 L 7.945312 24.277344 L 7.945312 22.988281 L 5.363281 22.988281 L 5.363281 20.402344 L 4.070312 20.402344 Z M 4.070312 22.339844 " fill-opacity="1" fill-rule="nonzero"/><path fill="#000000" d="M 11.824219 21.046875 L 11.824219 21.695312 L 15.699219 21.695312 L 15.699219 20.402344 L 11.824219 20.402344 Z M 11.824219 21.046875 " fill-opacity="1" fill-rule="nonzero"/><path fill="#000000" d="M 16.992188 23.632812 L 16.992188 26.863281 L 18.285156 26.863281 L 18.285156 24.277344 L 19.578125 24.277344 L 19.578125 26.863281 L 20.867188 26.863281 L 20.867188 22.988281 L 18.285156 22.988281 L 18.285156 20.402344 L 16.992188 20.402344 Z M 16.992188 23.632812 " fill-opacity="1" fill-rule="nonzero"/><path fill="#000000" d="M 11.824219 24.925781 L 11.824219 26.863281 L 13.113281 26.863281 L 13.113281 22.988281 L 11.824219 22.988281 Z M 11.824219 24.925781 " fill-opacity="1" fill-rule="nonzero"/><path fill="#000000" d="M 14.40625 24.925781 L 14.40625 26.863281 L 15.699219 26.863281 L 15.699219 22.988281 L 14.40625 22.988281 Z M 14.40625 24.925781 " fill-opacity="1" fill-rule="nonzero"/><g clip-path="url(#a03ea27f3a)"><path fill="#000000" d="M 24.746094 24.277344 L 24.746094 25.570312 L 22.160156 25.570312 L 22.160156 26.863281 L 24.746094 26.863281 L 24.746094 29.449219 L 26.039062 29.449219 L 26.039062 22.988281 L 24.746094 22.988281 Z M 24.746094 24.277344 " fill-opacity="1" fill-rule="nonzero"/></g><g clip-path="url(#c519aaaa74)"><path fill="#000000" d="M 1.484375 39.140625 L 1.484375 52.710938 L 54.46875 52.710938 L 54.46875 28.15625 L 53.175781 28.15625 L 53.175781 30.742188 L 50.589844 30.742188 L 50.589844 32.03125 L 53.175781 32.03125 L 53.175781 35.910156 L 50.589844 35.910156 L 50.589844 37.203125 L 53.175781 37.203125 L 53.175781 43.664062 L 50.589844 43.664062 L 50.589844 44.957031 L 53.175781 44.957031 L 53.175781 51.417969 L 44.128906 51.417969 L 44.128906 48.832031 L 42.835938 48.832031 L 42.835938 51.417969 L 38.960938 51.417969 L 38.960938 48.832031 L 37.667969 48.832031 L 37.667969 51.417969 L 28.621094 51.417969 L 28.621094 48.832031 L 27.332031 48.832031 L 27.332031 51.417969 L 18.285156 51.417969 L 18.285156 48.832031 L 16.992188 48.832031 L 16.992188 51.417969 L 2.777344 51.417969 L 2.777344 44.957031 L 5.363281 44.957031 L 5.363281 41.078125 L 4.070312 41.078125 L 4.070312 43.664062 L 2.777344 43.664062 L 2.777344 29.449219 L 5.363281 29.449219 L 5.363281 28.15625 L 2.777344 28.15625 L 2.777344 25.570312 L 1.484375 25.570312 Z M 1.484375 39.140625 " fill-opacity="1" fill-rule="nonzero"/></g><g clip-path="url(#198ef6b742)"><path fill="#000000" d="M 4.070312 26.21875 L 4.070312 26.863281 L 6.652344 26.863281 L 6.652344 29.449219 L 7.945312 29.449219 L 7.945312 26.863281 L 10.53125 26.863281 L 10.53125 25.570312 L 4.070312 25.570312 Z M 4.070312 26.21875 " fill-opacity="1" fill-rule="nonzero"/></g><g clip-path="url(#646209eb21)"><path fill="#000000" d="M 9.238281 28.800781 L 9.238281 29.449219 L 13.113281 29.449219 L 13.113281 28.15625 L 9.238281 28.15625 Z M 9.238281 28.800781 " fill-opacity="1" fill-rule="nonzero"/></g><g clip-path="url(#60fae77960)"><path fill="#000000" d="M 14.40625 29.449219 L 14.40625 30.742188 L 11.824219 30.742188 L 11.824219 32.03125 L 18.285156 32.03125 L 18.285156 30.742188 L 15.699219 30.742188 L 15.699219 29.449219 L 18.285156 29.449219 L 18.285156 28.15625 L 14.40625 28.15625 Z M 14.40625 29.449219 " fill-opacity="1" fill-rule="nonzero"/></g><g clip-path="url(#53c8ce24c3)"><path fill="#000000" d="M 19.578125 28.800781 L 19.578125 29.449219 L 23.453125 29.449219 L 23.453125 28.15625 L 19.578125 28.15625 Z M 19.578125 28.800781 " fill-opacity="1" fill-rule="nonzero"/></g></svg>